<?xml version="1.0" standalone="no"?><svg xmlns="http://www.w3.org/2000/svg" viewBox="0 0 1440 320"><path fill="#132749" fill-opacity="1" d="M0,160L20,133.3C40,107,80,53,120,42.7C160,32,200,64,240,112C280,160,320,224,360,240C400,256,440,224,480,192C520,160,560,128,600,96C640,64,680,32,720,32C760,32,800,64,840,117.3C880,171,920,245,960,234.7C1000,224,1040,128,1080,106.7C1120,85,1160,139,1200,149.3C1240,160,1280,128,1320,96C1360,64,1400,32,1420,16L1440,0L1440,320L1420,320C1400,320,1360,320,1320,320C1280,320,1240,320,1200,320C1160,320,1120,320,1080,320C1040,320,1000,320,960,320C920,320,880,320,840,320C800,320,760,320,720,320C680,320,640,320,600,320C560,320,520,320,480,320C440,320,400,320,360,320C320,320,280,320,240,320C200,320,160,320,120,320C80,320,40,320,20,320L0,320Z"></path></svg>